<svg xmlns="http://www.w3.org/2000/svg" width="420.0pt" height="595.0pt" viewBox="0 0 420.0 595.0">
<rect width="420.0" height="595.0" fill="#FBF8F2"/>
<g opacity="0.06"><g transform="translate(150,-40) scale(3.4)"><path d="M22 82 V46 a26 26 0 0 1 52 0 V82" fill="none" stroke="#3C5A4C" stroke-width="6" stroke-linecap="round"/></g></g>
<g transform="translate(28.0,40) scale(0.42)"><path d="M22 82 V46 a26 26 0 0 1 52 0 V82" fill="none" stroke="#3C5A4C" stroke-width="5.5" stroke-linecap="round"/><circle cx="48" cy="58" r="7.5" fill="#BB6E47"/></g>
<text x="68.0" y="62.0" font-family="Spectral Medium" font-size="16" fill="#232E2A" text-anchor="start">Lea Zoe Pfaffeneder</text>
<text x="69.0" y="76.0" font-family="IBM Plex Mono" font-size="8.5" fill="#A25836" text-anchor="start" letter-spacing="2.2">PSYCHOLOGISCHE BERATUNG</text>
<text x="34.0" y="150.0" font-family="IBM Plex Mono" font-size="8.5" fill="#A25836" text-anchor="start" letter-spacing="2.2">BERATUNG &amp; BEGLEITUNG · ONLINE</text>
<text x="34.0" y="180.0" font-family="Spectral SemiBold" font-size="33" fill="#232E2A" text-anchor="start">Raum für das, was Sie</text>
<text x="34.0" y="218.0" font-family="Spectral SemiBold" font-size="33" fill="#232E2A" text-anchor="start">gerade bewegt.</text>
<text x="34.0" y="262.0" font-family="Source Sans 3" font-size="11.5" fill="#3C4B45" text-anchor="start">Psychologische Beratung &amp; Begleitung — online und deutschlandweit.</text>
<text x="34.0" y="279.0" font-family="Source Sans 3" font-size="11.5" fill="#3C4B45" text-anchor="start">Ressourcenorientiert, wertschätzend und auf Augenhöhe. In Ruhe</text>
<text x="34.0" y="296.0" font-family="Source Sans 3" font-size="11.5" fill="#3C4B45" text-anchor="start">schauen wir gemeinsam auf Ihr Anliegen und stärken das, was Ihnen Halt</text>
<text x="34.0" y="313.0" font-family="Source Sans 3" font-size="11.5" fill="#3C4B45" text-anchor="start">gibt.</text>
<rect x="34.0" y="337" width="67.4" height="20" rx="10" fill="#EDF3EF" stroke="#DCE8E0"/>
<text x="45.0" y="351.0" font-family="Source Sans 3 SemiBold" font-size="9.5" fill="#3C5A4C" text-anchor="start">Vertraulich</text>
<rect x="109.3625" y="337" width="108.3" height="20" rx="10" fill="#EDF3EF" stroke="#DCE8E0"/>
<text x="120.4" y="351.0" font-family="Source Sans 3 SemiBold" font-size="9.5" fill="#3C5A4C" text-anchor="start">Ressourcenorientiert</text>
<rect x="225.651" y="337" width="83.8" height="20" rx="10" fill="#EDF3EF" stroke="#DCE8E0"/>
<text x="236.7" y="351.0" font-family="Source Sans 3 SemiBold" font-size="9.5" fill="#3C5A4C" text-anchor="start">Auf Augenhöhe</text>
<circle cx="37.0" cy="385" r="2.5" fill="#BB6E47"/>
<text x="48.0" y="388.0" font-family="Source Sans 3" font-size="11" fill="#3C4B45" text-anchor="start">Online · deutschlandweit</text>
<circle cx="37.0" cy="405" r="2.5" fill="#BB6E47"/>
<text x="48.0" y="408.0" font-family="Source Sans 3" font-size="11" fill="#3C4B45" text-anchor="start">Deutsch &amp; English</text>
<circle cx="37.0" cy="425" r="2.5" fill="#BB6E47"/>
<text x="48.0" y="428.0" font-family="Source Sans 3" font-size="11" fill="#3C4B45" text-anchor="start">Erstgespräch unverbindlich</text>
<rect x="34.0" y="470" width="352.0" height="64" rx="14" fill="#243831"/>
<text x="54.0" y="496.0" font-family="Spectral SemiBold" font-size="15" fill="#FBF8F2" text-anchor="start">Termin anfragen</text>
<text x="54.0" y="515.0" font-family="Source Sans 3" font-size="9.5" fill="#C9D6CE" text-anchor="start">Unverbindliches Kennenlernen — einfach Code scannen</text>
<rect x="315.0" y="478" width="56" height="48" rx="6" fill="#FFFFFF"/>
<rect x="322.00" y="480.00" width="1.33" height="1.33" fill="#243831"/><rect x="323.33" y="480.00" width="1.33" height="1.33" fill="#243831"/><rect x="324.67" y="480.00" width="1.33" height="1.33" fill="#243831"/><rect x="326.00" y="480.00" width="1.33" height="1.33" fill="#243831"/><rect x="327.33" y="480.00" width="1.33" height="1.33" fill="#243831"/><rect x="328.67" y="480.00" width="1.33" height="1.33" fill="#243831"/><rect x="330.00" y="480.00" width="1.33" height="1.33" fill="#243831"/><rect x="332.67" y="480.00" width="1.33" height="1.33" fill="#243831"/><rect x="336.67" y="480.00" width="1.33" height="1.33" fill="#243831"/><rect x="346.00" y="480.00" width="1.33" height="1.33" fill="#243831"/><rect x="350.00" y="480.00" width="1.33" height="1.33" fill="#243831"/><rect x="351.33" y="480.00" width="1.33" height="1.33" fill="#243831"/><rect x="356.67" y="480.00" width="1.33" height="1.33" fill="#243831"/><rect x="358.00" y="480.00" width="1.33" height="1.33" fill="#243831"/><rect x="359.33" y="480.00" width="1.33" height="1.33" fill="#243831"/><rect x="360.67" y="480.00" width="1.33" height="1.33" fill="#243831"/><rect x="362.00" y="480.00" width="1.33" height="1.33" fill="#243831"/><rect x="363.33" y="480.00" width="1.33" height="1.33" fill="#243831"/><rect x="364.67" y="480.00" width="1.33" height="1.33" fill="#243831"/><rect x="322.00" y="481.33" width="1.33" height="1.33" fill="#243831"/><rect x="330.00" y="481.33" width="1.33" height="1.33" fill="#243831"/><rect x="332.67" y="481.33" width="1.33" height="1.33" fill="#243831"/><rect x="336.67" y="481.33" width="1.33" height="1.33" fill="#243831"/><rect x="338.00" y="481.33" width="1.33" height="1.33" fill="#243831"/><rect x="344.67" y="481.33" width="1.33" height="1.33" fill="#243831"/><rect x="347.33" y="481.33" width="1.33" height="1.33" fill="#243831"/><rect x="348.67" y="481.33" width="1.33" height="1.33" fill="#243831"/><rect x="351.33" y="481.33" width="1.33" height="1.33" fill="#243831"/><rect x="356.67" y="481.33" width="1.33" height="1.33" fill="#243831"/><rect x="364.67" y="481.33" width="1.33" height="1.33" fill="#243831"/><rect x="322.00" y="482.67" width="1.33" height="1.33" fill="#243831"/><rect x="324.67" y="482.67" width="1.33" height="1.33" fill="#243831"/><rect x="326.00" y="482.67" width="1.33" height="1.33" fill="#243831"/><rect x="327.33" y="482.67" width="1.33" height="1.33" fill="#243831"/><rect x="330.00" y="482.67" width="1.33" height="1.33" fill="#243831"/><rect x="332.67" y="482.67" width="1.33" height="1.33" fill="#243831"/><rect x="334.00" y="482.67" width="1.33" height="1.33" fill="#243831"/><rect x="335.33" y="482.67" width="1.33" height="1.33" fill="#243831"/><rect x="336.67" y="482.67" width="1.33" height="1.33" fill="#243831"/><rect x="338.00" y="482.67" width="1.33" height="1.33" fill="#243831"/><rect x="342.00" y="482.67" width="1.33" height="1.33" fill="#243831"/><rect x="343.33" y="482.67" width="1.33" height="1.33" fill="#243831"/><rect x="344.67" y="482.67" width="1.33" height="1.33" fill="#243831"/><rect x="346.00" y="482.67" width="1.33" height="1.33" fill="#243831"/><rect x="348.67" y="482.67" width="1.33" height="1.33" fill="#243831"/><rect x="350.00" y="482.67" width="1.33" height="1.33" fill="#243831"/><rect x="352.67" y="482.67" width="1.33" height="1.33" fill="#243831"/><rect x="354.00" y="482.67" width="1.33" height="1.33" fill="#243831"/><rect x="356.67" y="482.67" width="1.33" height="1.33" fill="#243831"/><rect x="359.33" y="482.67" width="1.33" height="1.33" fill="#243831"/><rect x="360.67" y="482.67" width="1.33" height="1.33" fill="#243831"/><rect x="362.00" y="482.67" width="1.33" height="1.33" fill="#243831"/><rect x="364.67" y="482.67" width="1.33" height="1.33" fill="#243831"/><rect x="322.00" y="484.00" width="1.33" height="1.33" fill="#243831"/><rect x="324.67" y="484.00" width="1.33" height="1.33" fill="#243831"/><rect x="326.00" y="484.00" width="1.33" height="1.33" fill="#243831"/><rect x="327.33" y="484.00" width="1.33" height="1.33" fill="#243831"/><rect x="330.00" y="484.00" width="1.33" height="1.33" fill="#243831"/><rect x="334.00" y="484.00" width="1.33" height="1.33" fill="#243831"/><rect x="335.33" y="484.00" width="1.33" height="1.33" fill="#243831"/><rect x="336.67" y="484.00" width="1.33" height="1.33" fill="#243831"/><rect x="348.67" y="484.00" width="1.33" height="1.33" fill="#243831"/><rect x="350.00" y="484.00" width="1.33" height="1.33" fill="#243831"/><rect x="354.00" y="484.00" width="1.33" height="1.33" fill="#243831"/><rect x="356.67" y="484.00" width="1.33" height="1.33" fill="#243831"/><rect x="359.33" y="484.00" width="1.33" height="1.33" fill="#243831"/><rect x="360.67" y="484.00" width="1.33" height="1.33" fill="#243831"/><rect x="362.00" y="484.00" width="1.33" height="1.33" fill="#243831"/><rect x="364.67" y="484.00" width="1.33" height="1.33" fill="#243831"/><rect x="322.00" y="485.33" width="1.33" height="1.33" fill="#243831"/><rect x="324.67" y="485.33" width="1.33" height="1.33" fill="#243831"/><rect x="326.00" y="485.33" width="1.33" height="1.33" fill="#243831"/><rect x="327.33" y="485.33" width="1.33" height="1.33" fill="#243831"/><rect x="330.00" y="485.33" width="1.33" height="1.33" fill="#243831"/><rect x="332.67" y="485.33" width="1.33" height="1.33" fill="#243831"/><rect x="335.33" y="485.33" width="1.33" height="1.33" fill="#243831"/><rect x="336.67" y="485.33" width="1.33" height="1.33" fill="#243831"/><rect x="340.67" y="485.33" width="1.33" height="1.33" fill="#243831"/><rect x="342.00" y="485.33" width="1.33" height="1.33" fill="#243831"/><rect x="344.67" y="485.33" width="1.33" height="1.33" fill="#243831"/><rect x="346.00" y="485.33" width="1.33" height="1.33" fill="#243831"/><rect x="348.67" y="485.33" width="1.33" height="1.33" fill="#243831"/><rect x="351.33" y="485.33" width="1.33" height="1.33" fill="#243831"/><rect x="356.67" y="485.33" width="1.33" height="1.33" fill="#243831"/><rect x="359.33" y="485.33" width="1.33" height="1.33" fill="#243831"/><rect x="360.67" y="485.33" width="1.33" height="1.33" fill="#243831"/><rect x="362.00" y="485.33" width="1.33" height="1.33" fill="#243831"/><rect x="364.67" y="485.33" width="1.33" height="1.33" fill="#243831"/><rect x="322.00" y="486.67" width="1.33" height="1.33" fill="#243831"/><rect x="330.00" y="486.67" width="1.33" height="1.33" fill="#243831"/><rect x="339.33" y="486.67" width="1.33" height="1.33" fill="#243831"/><rect x="344.67" y="486.67" width="1.33" height="1.33" fill="#243831"/><rect x="350.00" y="486.67" width="1.33" height="1.33" fill="#243831"/><rect x="352.67" y="486.67" width="1.33" height="1.33" fill="#243831"/><rect x="354.00" y="486.67" width="1.33" height="1.33" fill="#243831"/><rect x="356.67" y="486.67" width="1.33" height="1.33" fill="#243831"/><rect x="364.67" y="486.67" width="1.33" height="1.33" fill="#243831"/><rect x="322.00" y="488.00" width="1.33" height="1.33" fill="#243831"/><rect x="323.33" y="488.00" width="1.33" height="1.33" fill="#243831"/><rect x="324.67" y="488.00" width="1.33" height="1.33" fill="#243831"/><rect x="326.00" y="488.00" width="1.33" height="1.33" fill="#243831"/><rect x="327.33" y="488.00" width="1.33" height="1.33" fill="#243831"/><rect x="328.67" y="488.00" width="1.33" height="1.33" fill="#243831"/><rect x="330.00" y="488.00" width="1.33" height="1.33" fill="#243831"/><rect x="332.67" y="488.00" width="1.33" height="1.33" fill="#243831"/><rect x="335.33" y="488.00" width="1.33" height="1.33" fill="#243831"/><rect x="338.00" y="488.00" width="1.33" height="1.33" fill="#243831"/><rect x="340.67" y="488.00" width="1.33" height="1.33" fill="#243831"/><rect x="343.33" y="488.00" width="1.33" height="1.33" fill="#243831"/><rect x="346.00" y="488.00" width="1.33" height="1.33" fill="#243831"/><rect x="348.67" y="488.00" width="1.33" height="1.33" fill="#243831"/><rect x="351.33" y="488.00" width="1.33" height="1.33" fill="#243831"/><rect x="354.00" y="488.00" width="1.33" height="1.33" fill="#243831"/><rect x="356.67" y="488.00" width="1.33" height="1.33" fill="#243831"/><rect x="358.00" y="488.00" width="1.33" height="1.33" fill="#243831"/><rect x="359.33" y="488.00" width="1.33" height="1.33" fill="#243831"/><rect x="360.67" y="488.00" width="1.33" height="1.33" fill="#243831"/><rect x="362.00" y="488.00" width="1.33" height="1.33" fill="#243831"/><rect x="363.33" y="488.00" width="1.33" height="1.33" fill="#243831"/><rect x="364.67" y="488.00" width="1.33" height="1.33" fill="#243831"/><rect x="335.33" y="489.33" width="1.33" height="1.33" fill="#243831"/><rect x="336.67" y="489.33" width="1.33" height="1.33" fill="#243831"/><rect x="338.00" y="489.33" width="1.33" height="1.33" fill="#243831"/><rect x="339.33" y="489.33" width="1.33" height="1.33" fill="#243831"/><rect x="347.33" y="489.33" width="1.33" height="1.33" fill="#243831"/><rect x="348.67" y="489.33" width="1.33" height="1.33" fill="#243831"/><rect x="351.33" y="489.33" width="1.33" height="1.33" fill="#243831"/><rect x="352.67" y="489.33" width="1.33" height="1.33" fill="#243831"/><rect x="354.00" y="489.33" width="1.33" height="1.33" fill="#243831"/><rect x="322.00" y="490.67" width="1.33" height="1.33" fill="#243831"/><rect x="326.00" y="490.67" width="1.33" height="1.33" fill="#243831"/><rect x="327.33" y="490.67" width="1.33" height="1.33" fill="#243831"/><rect x="328.67" y="490.67" width="1.33" height="1.33" fill="#243831"/><rect x="330.00" y="490.67" width="1.33" height="1.33" fill="#243831"/><rect x="331.33" y="490.67" width="1.33" height="1.33" fill="#243831"/><rect x="332.67" y="490.67" width="1.33" height="1.33" fill="#243831"/><rect x="334.00" y="490.67" width="1.33" height="1.33" fill="#243831"/><rect x="336.67" y="490.67" width="1.33" height="1.33" fill="#243831"/><rect x="340.67" y="490.67" width="1.33" height="1.33" fill="#243831"/><rect x="342.00" y="490.67" width="1.33" height="1.33" fill="#243831"/><rect x="344.67" y="490.67" width="1.33" height="1.33" fill="#243831"/><rect x="347.33" y="490.67" width="1.33" height="1.33" fill="#243831"/><rect x="354.00" y="490.67" width="1.33" height="1.33" fill="#243831"/><rect x="355.33" y="490.67" width="1.33" height="1.33" fill="#243831"/><rect x="359.33" y="490.67" width="1.33" height="1.33" fill="#243831"/><rect x="362.00" y="490.67" width="1.33" height="1.33" fill="#243831"/><rect x="363.33" y="490.67" width="1.33" height="1.33" fill="#243831"/><rect x="364.67" y="490.67" width="1.33" height="1.33" fill="#243831"/><rect x="324.67" y="492.00" width="1.33" height="1.33" fill="#243831"/><rect x="334.00" y="492.00" width="1.33" height="1.33" fill="#243831"/><rect x="338.00" y="492.00" width="1.33" height="1.33" fill="#243831"/><rect x="342.00" y="492.00" width="1.33" height="1.33" fill="#243831"/><rect x="346.00" y="492.00" width="1.33" height="1.33" fill="#243831"/><rect x="347.33" y="492.00" width="1.33" height="1.33" fill="#243831"/><rect x="351.33" y="492.00" width="1.33" height="1.33" fill="#243831"/><rect x="352.67" y="492.00" width="1.33" height="1.33" fill="#243831"/><rect x="359.33" y="492.00" width="1.33" height="1.33" fill="#243831"/><rect x="360.67" y="492.00" width="1.33" height="1.33" fill="#243831"/><rect x="362.00" y="492.00" width="1.33" height="1.33" fill="#243831"/><rect x="327.33" y="493.33" width="1.33" height="1.33" fill="#243831"/><rect x="328.67" y="493.33" width="1.33" height="1.33" fill="#243831"/><rect x="330.00" y="493.33" width="1.33" height="1.33" fill="#243831"/><rect x="331.33" y="493.33" width="1.33" height="1.33" fill="#243831"/><rect x="335.33" y="493.33" width="1.33" height="1.33" fill="#243831"/><rect x="340.67" y="493.33" width="1.33" height="1.33" fill="#243831"/><rect x="342.00" y="493.33" width="1.33" height="1.33" fill="#243831"/><rect x="343.33" y="493.33" width="1.33" height="1.33" fill="#243831"/><rect x="344.67" y="493.33" width="1.33" height="1.33" fill="#243831"/><rect x="346.00" y="493.33" width="1.33" height="1.33" fill="#243831"/><rect x="348.67" y="493.33" width="1.33" height="1.33" fill="#243831"/><rect x="352.67" y="493.33" width="1.33" height="1.33" fill="#243831"/><rect x="354.00" y="493.33" width="1.33" height="1.33" fill="#243831"/><rect x="356.67" y="493.33" width="1.33" height="1.33" fill="#243831"/><rect x="359.33" y="493.33" width="1.33" height="1.33" fill="#243831"/><rect x="360.67" y="493.33" width="1.33" height="1.33" fill="#243831"/><rect x="362.00" y="493.33" width="1.33" height="1.33" fill="#243831"/><rect x="363.33" y="493.33" width="1.33" height="1.33" fill="#243831"/><rect x="364.67" y="493.33" width="1.33" height="1.33" fill="#243831"/><rect x="323.33" y="494.67" width="1.33" height="1.33" fill="#243831"/><rect x="324.67" y="494.67" width="1.33" height="1.33" fill="#243831"/><rect x="326.00" y="494.67" width="1.33" height="1.33" fill="#243831"/><rect x="327.33" y="494.67" width="1.33" height="1.33" fill="#243831"/><rect x="328.67" y="494.67" width="1.33" height="1.33" fill="#243831"/><rect x="331.33" y="494.67" width="1.33" height="1.33" fill="#243831"/><rect x="332.67" y="494.67" width="1.33" height="1.33" fill="#243831"/><rect x="334.00" y="494.67" width="1.33" height="1.33" fill="#243831"/><rect x="338.00" y="494.67" width="1.33" height="1.33" fill="#243831"/><rect x="340.67" y="494.67" width="1.33" height="1.33" fill="#243831"/><rect x="342.00" y="494.67" width="1.33" height="1.33" fill="#243831"/><rect x="344.67" y="494.67" width="1.33" height="1.33" fill="#243831"/><rect x="347.33" y="494.67" width="1.33" height="1.33" fill="#243831"/><rect x="348.67" y="494.67" width="1.33" height="1.33" fill="#243831"/><rect x="351.33" y="494.67" width="1.33" height="1.33" fill="#243831"/><rect x="355.33" y="494.67" width="1.33" height="1.33" fill="#243831"/><rect x="356.67" y="494.67" width="1.33" height="1.33" fill="#243831"/><rect x="358.00" y="494.67" width="1.33" height="1.33" fill="#243831"/><rect x="362.00" y="494.67" width="1.33" height="1.33" fill="#243831"/><rect x="322.00" y="496.00" width="1.33" height="1.33" fill="#243831"/><rect x="326.00" y="496.00" width="1.33" height="1.33" fill="#243831"/><rect x="327.33" y="496.00" width="1.33" height="1.33" fill="#243831"/><rect x="328.67" y="496.00" width="1.33" height="1.33" fill="#243831"/><rect x="330.00" y="496.00" width="1.33" height="1.33" fill="#243831"/><rect x="334.00" y="496.00" width="1.33" height="1.33" fill="#243831"/><rect x="336.67" y="496.00" width="1.33" height="1.33" fill="#243831"/><rect x="338.00" y="496.00" width="1.33" height="1.33" fill="#243831"/><rect x="339.33" y="496.00" width="1.33" height="1.33" fill="#243831"/><rect x="340.67" y="496.00" width="1.33" height="1.33" fill="#243831"/><rect x="343.33" y="496.00" width="1.33" height="1.33" fill="#243831"/><rect x="344.67" y="496.00" width="1.33" height="1.33" fill="#243831"/><rect x="346.00" y="496.00" width="1.33" height="1.33" fill="#243831"/><rect x="347.33" y="496.00" width="1.33" height="1.33" fill="#243831"/><rect x="348.67" y="496.00" width="1.33" height="1.33" fill="#243831"/><rect x="354.00" y="496.00" width="1.33" height="1.33" fill="#243831"/><rect x="356.67" y="496.00" width="1.33" height="1.33" fill="#243831"/><rect x="363.33" y="496.00" width="1.33" height="1.33" fill="#243831"/><rect x="322.00" y="497.33" width="1.33" height="1.33" fill="#243831"/><rect x="323.33" y="497.33" width="1.33" height="1.33" fill="#243831"/><rect x="324.67" y="497.33" width="1.33" height="1.33" fill="#243831"/><rect x="328.67" y="497.33" width="1.33" height="1.33" fill="#243831"/><rect x="331.33" y="497.33" width="1.33" height="1.33" fill="#243831"/><rect x="336.67" y="497.33" width="1.33" height="1.33" fill="#243831"/><rect x="343.33" y="497.33" width="1.33" height="1.33" fill="#243831"/><rect x="344.67" y="497.33" width="1.33" height="1.33" fill="#243831"/><rect x="347.33" y="497.33" width="1.33" height="1.33" fill="#243831"/><rect x="348.67" y="497.33" width="1.33" height="1.33" fill="#243831"/><rect x="350.00" y="497.33" width="1.33" height="1.33" fill="#243831"/><rect x="352.67" y="497.33" width="1.33" height="1.33" fill="#243831"/><rect x="355.33" y="497.33" width="1.33" height="1.33" fill="#243831"/><rect x="358.00" y="497.33" width="1.33" height="1.33" fill="#243831"/><rect x="360.67" y="497.33" width="1.33" height="1.33" fill="#243831"/><rect x="322.00" y="498.67" width="1.33" height="1.33" fill="#243831"/><rect x="326.00" y="498.67" width="1.33" height="1.33" fill="#243831"/><rect x="328.67" y="498.67" width="1.33" height="1.33" fill="#243831"/><rect x="330.00" y="498.67" width="1.33" height="1.33" fill="#243831"/><rect x="331.33" y="498.67" width="1.33" height="1.33" fill="#243831"/><rect x="332.67" y="498.67" width="1.33" height="1.33" fill="#243831"/><rect x="335.33" y="498.67" width="1.33" height="1.33" fill="#243831"/><rect x="336.67" y="498.67" width="1.33" height="1.33" fill="#243831"/><rect x="339.33" y="498.67" width="1.33" height="1.33" fill="#243831"/><rect x="343.33" y="498.67" width="1.33" height="1.33" fill="#243831"/><rect x="344.67" y="498.67" width="1.33" height="1.33" fill="#243831"/><rect x="347.33" y="498.67" width="1.33" height="1.33" fill="#243831"/><rect x="348.67" y="498.67" width="1.33" height="1.33" fill="#243831"/><rect x="350.00" y="498.67" width="1.33" height="1.33" fill="#243831"/><rect x="356.67" y="498.67" width="1.33" height="1.33" fill="#243831"/><rect x="359.33" y="498.67" width="1.33" height="1.33" fill="#243831"/><rect x="360.67" y="498.67" width="1.33" height="1.33" fill="#243831"/><rect x="322.00" y="500.00" width="1.33" height="1.33" fill="#243831"/><rect x="323.33" y="500.00" width="1.33" height="1.33" fill="#243831"/><rect x="326.00" y="500.00" width="1.33" height="1.33" fill="#243831"/><rect x="328.67" y="500.00" width="1.33" height="1.33" fill="#243831"/><rect x="331.33" y="500.00" width="1.33" height="1.33" fill="#243831"/><rect x="335.33" y="500.00" width="1.33" height="1.33" fill="#243831"/><rect x="342.00" y="500.00" width="1.33" height="1.33" fill="#243831"/><rect x="346.00" y="500.00" width="1.33" height="1.33" fill="#243831"/><rect x="347.33" y="500.00" width="1.33" height="1.33" fill="#243831"/><rect x="355.33" y="500.00" width="1.33" height="1.33" fill="#243831"/><rect x="360.67" y="500.00" width="1.33" height="1.33" fill="#243831"/><rect x="362.00" y="500.00" width="1.33" height="1.33" fill="#243831"/><rect x="364.67" y="500.00" width="1.33" height="1.33" fill="#243831"/><rect x="322.00" y="501.33" width="1.33" height="1.33" fill="#243831"/><rect x="323.33" y="501.33" width="1.33" height="1.33" fill="#243831"/><rect x="327.33" y="501.33" width="1.33" height="1.33" fill="#243831"/><rect x="328.67" y="501.33" width="1.33" height="1.33" fill="#243831"/><rect x="330.00" y="501.33" width="1.33" height="1.33" fill="#243831"/><rect x="331.33" y="501.33" width="1.33" height="1.33" fill="#243831"/><rect x="335.33" y="501.33" width="1.33" height="1.33" fill="#243831"/><rect x="336.67" y="501.33" width="1.33" height="1.33" fill="#243831"/><rect x="348.67" y="501.33" width="1.33" height="1.33" fill="#243831"/><rect x="354.00" y="501.33" width="1.33" height="1.33" fill="#243831"/><rect x="355.33" y="501.33" width="1.33" height="1.33" fill="#243831"/><rect x="356.67" y="501.33" width="1.33" height="1.33" fill="#243831"/><rect x="358.00" y="501.33" width="1.33" height="1.33" fill="#243831"/><rect x="359.33" y="501.33" width="1.33" height="1.33" fill="#243831"/><rect x="360.67" y="501.33" width="1.33" height="1.33" fill="#243831"/><rect x="324.67" y="502.67" width="1.33" height="1.33" fill="#243831"/><rect x="326.00" y="502.67" width="1.33" height="1.33" fill="#243831"/><rect x="327.33" y="502.67" width="1.33" height="1.33" fill="#243831"/><rect x="332.67" y="502.67" width="1.33" height="1.33" fill="#243831"/><rect x="334.00" y="502.67" width="1.33" height="1.33" fill="#243831"/><rect x="335.33" y="502.67" width="1.33" height="1.33" fill="#243831"/><rect x="336.67" y="502.67" width="1.33" height="1.33" fill="#243831"/><rect x="338.00" y="502.67" width="1.33" height="1.33" fill="#243831"/><rect x="342.00" y="502.67" width="1.33" height="1.33" fill="#243831"/><rect x="343.33" y="502.67" width="1.33" height="1.33" fill="#243831"/><rect x="346.00" y="502.67" width="1.33" height="1.33" fill="#243831"/><rect x="347.33" y="502.67" width="1.33" height="1.33" fill="#243831"/><rect x="348.67" y="502.67" width="1.33" height="1.33" fill="#243831"/><rect x="351.33" y="502.67" width="1.33" height="1.33" fill="#243831"/><rect x="354.00" y="502.67" width="1.33" height="1.33" fill="#243831"/><rect x="356.67" y="502.67" width="1.33" height="1.33" fill="#243831"/><rect x="359.33" y="502.67" width="1.33" height="1.33" fill="#243831"/><rect x="362.00" y="502.67" width="1.33" height="1.33" fill="#243831"/><rect x="364.67" y="502.67" width="1.33" height="1.33" fill="#243831"/><rect x="322.00" y="504.00" width="1.33" height="1.33" fill="#243831"/><rect x="326.00" y="504.00" width="1.33" height="1.33" fill="#243831"/><rect x="327.33" y="504.00" width="1.33" height="1.33" fill="#243831"/><rect x="328.67" y="504.00" width="1.33" height="1.33" fill="#243831"/><rect x="330.00" y="504.00" width="1.33" height="1.33" fill="#243831"/><rect x="331.33" y="504.00" width="1.33" height="1.33" fill="#243831"/><rect x="332.67" y="504.00" width="1.33" height="1.33" fill="#243831"/><rect x="334.00" y="504.00" width="1.33" height="1.33" fill="#243831"/><rect x="335.33" y="504.00" width="1.33" height="1.33" fill="#243831"/><rect x="336.67" y="504.00" width="1.33" height="1.33" fill="#243831"/><rect x="339.33" y="504.00" width="1.33" height="1.33" fill="#243831"/><rect x="340.67" y="504.00" width="1.33" height="1.33" fill="#243831"/><rect x="342.00" y="504.00" width="1.33" height="1.33" fill="#243831"/><rect x="343.33" y="504.00" width="1.33" height="1.33" fill="#243831"/><rect x="347.33" y="504.00" width="1.33" height="1.33" fill="#243831"/><rect x="350.00" y="504.00" width="1.33" height="1.33" fill="#243831"/><rect x="351.33" y="504.00" width="1.33" height="1.33" fill="#243831"/><rect x="352.67" y="504.00" width="1.33" height="1.33" fill="#243831"/><rect x="354.00" y="504.00" width="1.33" height="1.33" fill="#243831"/><rect x="355.33" y="504.00" width="1.33" height="1.33" fill="#243831"/><rect x="356.67" y="504.00" width="1.33" height="1.33" fill="#243831"/><rect x="358.00" y="504.00" width="1.33" height="1.33" fill="#243831"/><rect x="360.67" y="504.00" width="1.33" height="1.33" fill="#243831"/><rect x="362.00" y="504.00" width="1.33" height="1.33" fill="#243831"/><rect x="364.67" y="504.00" width="1.33" height="1.33" fill="#243831"/><rect x="322.00" y="505.33" width="1.33" height="1.33" fill="#243831"/><rect x="323.33" y="505.33" width="1.33" height="1.33" fill="#243831"/><rect x="327.33" y="505.33" width="1.33" height="1.33" fill="#243831"/><rect x="331.33" y="505.33" width="1.33" height="1.33" fill="#243831"/><rect x="332.67" y="505.33" width="1.33" height="1.33" fill="#243831"/><rect x="335.33" y="505.33" width="1.33" height="1.33" fill="#243831"/><rect x="339.33" y="505.33" width="1.33" height="1.33" fill="#243831"/><rect x="342.00" y="505.33" width="1.33" height="1.33" fill="#243831"/><rect x="344.67" y="505.33" width="1.33" height="1.33" fill="#243831"/><rect x="346.00" y="505.33" width="1.33" height="1.33" fill="#243831"/><rect x="347.33" y="505.33" width="1.33" height="1.33" fill="#243831"/><rect x="348.67" y="505.33" width="1.33" height="1.33" fill="#243831"/><rect x="351.33" y="505.33" width="1.33" height="1.33" fill="#243831"/><rect x="359.33" y="505.33" width="1.33" height="1.33" fill="#243831"/><rect x="360.67" y="505.33" width="1.33" height="1.33" fill="#243831"/><rect x="362.00" y="505.33" width="1.33" height="1.33" fill="#243831"/><rect x="322.00" y="506.67" width="1.33" height="1.33" fill="#243831"/><rect x="323.33" y="506.67" width="1.33" height="1.33" fill="#243831"/><rect x="324.67" y="506.67" width="1.33" height="1.33" fill="#243831"/><rect x="327.33" y="506.67" width="1.33" height="1.33" fill="#243831"/><rect x="328.67" y="506.67" width="1.33" height="1.33" fill="#243831"/><rect x="330.00" y="506.67" width="1.33" height="1.33" fill="#243831"/><rect x="331.33" y="506.67" width="1.33" height="1.33" fill="#243831"/><rect x="334.00" y="506.67" width="1.33" height="1.33" fill="#243831"/><rect x="336.67" y="506.67" width="1.33" height="1.33" fill="#243831"/><rect x="338.00" y="506.67" width="1.33" height="1.33" fill="#243831"/><rect x="342.00" y="506.67" width="1.33" height="1.33" fill="#243831"/><rect x="347.33" y="506.67" width="1.33" height="1.33" fill="#243831"/><rect x="352.67" y="506.67" width="1.33" height="1.33" fill="#243831"/><rect x="354.00" y="506.67" width="1.33" height="1.33" fill="#243831"/><rect x="358.00" y="506.67" width="1.33" height="1.33" fill="#243831"/><rect x="360.67" y="506.67" width="1.33" height="1.33" fill="#243831"/><rect x="363.33" y="506.67" width="1.33" height="1.33" fill="#243831"/><rect x="322.00" y="508.00" width="1.33" height="1.33" fill="#243831"/><rect x="331.33" y="508.00" width="1.33" height="1.33" fill="#243831"/><rect x="332.67" y="508.00" width="1.33" height="1.33" fill="#243831"/><rect x="334.00" y="508.00" width="1.33" height="1.33" fill="#243831"/><rect x="336.67" y="508.00" width="1.33" height="1.33" fill="#243831"/><rect x="339.33" y="508.00" width="1.33" height="1.33" fill="#243831"/><rect x="343.33" y="508.00" width="1.33" height="1.33" fill="#243831"/><rect x="346.00" y="508.00" width="1.33" height="1.33" fill="#243831"/><rect x="347.33" y="508.00" width="1.33" height="1.33" fill="#243831"/><rect x="350.00" y="508.00" width="1.33" height="1.33" fill="#243831"/><rect x="352.67" y="508.00" width="1.33" height="1.33" fill="#243831"/><rect x="354.00" y="508.00" width="1.33" height="1.33" fill="#243831"/><rect x="358.00" y="508.00" width="1.33" height="1.33" fill="#243831"/><rect x="359.33" y="508.00" width="1.33" height="1.33" fill="#243831"/><rect x="360.67" y="508.00" width="1.33" height="1.33" fill="#243831"/><rect x="322.00" y="509.33" width="1.33" height="1.33" fill="#243831"/><rect x="326.00" y="509.33" width="1.33" height="1.33" fill="#243831"/><rect x="327.33" y="509.33" width="1.33" height="1.33" fill="#243831"/><rect x="330.00" y="509.33" width="1.33" height="1.33" fill="#243831"/><rect x="331.33" y="509.33" width="1.33" height="1.33" fill="#243831"/><rect x="332.67" y="509.33" width="1.33" height="1.33" fill="#243831"/><rect x="336.67" y="509.33" width="1.33" height="1.33" fill="#243831"/><rect x="339.33" y="509.33" width="1.33" height="1.33" fill="#243831"/><rect x="340.67" y="509.33" width="1.33" height="1.33" fill="#243831"/><rect x="342.00" y="509.33" width="1.33" height="1.33" fill="#243831"/><rect x="343.33" y="509.33" width="1.33" height="1.33" fill="#243831"/><rect x="344.67" y="509.33" width="1.33" height="1.33" fill="#243831"/><rect x="348.67" y="509.33" width="1.33" height="1.33" fill="#243831"/><rect x="351.33" y="509.33" width="1.33" height="1.33" fill="#243831"/><rect x="352.67" y="509.33" width="1.33" height="1.33" fill="#243831"/><rect x="356.67" y="509.33" width="1.33" height="1.33" fill="#243831"/><rect x="359.33" y="509.33" width="1.33" height="1.33" fill="#243831"/><rect x="360.67" y="509.33" width="1.33" height="1.33" fill="#243831"/><rect x="362.00" y="509.33" width="1.33" height="1.33" fill="#243831"/><rect x="363.33" y="509.33" width="1.33" height="1.33" fill="#243831"/><rect x="364.67" y="509.33" width="1.33" height="1.33" fill="#243831"/><rect x="322.00" y="510.67" width="1.33" height="1.33" fill="#243831"/><rect x="326.00" y="510.67" width="1.33" height="1.33" fill="#243831"/><rect x="331.33" y="510.67" width="1.33" height="1.33" fill="#243831"/><rect x="335.33" y="510.67" width="1.33" height="1.33" fill="#243831"/><rect x="336.67" y="510.67" width="1.33" height="1.33" fill="#243831"/><rect x="338.00" y="510.67" width="1.33" height="1.33" fill="#243831"/><rect x="339.33" y="510.67" width="1.33" height="1.33" fill="#243831"/><rect x="340.67" y="510.67" width="1.33" height="1.33" fill="#243831"/><rect x="343.33" y="510.67" width="1.33" height="1.33" fill="#243831"/><rect x="344.67" y="510.67" width="1.33" height="1.33" fill="#243831"/><rect x="347.33" y="510.67" width="1.33" height="1.33" fill="#243831"/><rect x="348.67" y="510.67" width="1.33" height="1.33" fill="#243831"/><rect x="352.67" y="510.67" width="1.33" height="1.33" fill="#243831"/><rect x="355.33" y="510.67" width="1.33" height="1.33" fill="#243831"/><rect x="356.67" y="510.67" width="1.33" height="1.33" fill="#243831"/><rect x="358.00" y="510.67" width="1.33" height="1.33" fill="#243831"/><rect x="359.33" y="510.67" width="1.33" height="1.33" fill="#243831"/><rect x="362.00" y="510.67" width="1.33" height="1.33" fill="#243831"/><rect x="363.33" y="510.67" width="1.33" height="1.33" fill="#243831"/><rect x="364.67" y="510.67" width="1.33" height="1.33" fill="#243831"/><rect x="322.00" y="512.00" width="1.33" height="1.33" fill="#243831"/><rect x="323.33" y="512.00" width="1.33" height="1.33" fill="#243831"/><rect x="326.00" y="512.00" width="1.33" height="1.33" fill="#243831"/><rect x="330.00" y="512.00" width="1.33" height="1.33" fill="#243831"/><rect x="331.33" y="512.00" width="1.33" height="1.33" fill="#243831"/><rect x="334.00" y="512.00" width="1.33" height="1.33" fill="#243831"/><rect x="335.33" y="512.00" width="1.33" height="1.33" fill="#243831"/><rect x="338.00" y="512.00" width="1.33" height="1.33" fill="#243831"/><rect x="340.67" y="512.00" width="1.33" height="1.33" fill="#243831"/><rect x="342.00" y="512.00" width="1.33" height="1.33" fill="#243831"/><rect x="348.67" y="512.00" width="1.33" height="1.33" fill="#243831"/><rect x="352.67" y="512.00" width="1.33" height="1.33" fill="#243831"/><rect x="354.00" y="512.00" width="1.33" height="1.33" fill="#243831"/><rect x="355.33" y="512.00" width="1.33" height="1.33" fill="#243831"/><rect x="356.67" y="512.00" width="1.33" height="1.33" fill="#243831"/><rect x="358.00" y="512.00" width="1.33" height="1.33" fill="#243831"/><rect x="359.33" y="512.00" width="1.33" height="1.33" fill="#243831"/><rect x="360.67" y="512.00" width="1.33" height="1.33" fill="#243831"/><rect x="363.33" y="512.00" width="1.33" height="1.33" fill="#243831"/><rect x="364.67" y="512.00" width="1.33" height="1.33" fill="#243831"/><rect x="332.67" y="513.33" width="1.33" height="1.33" fill="#243831"/><rect x="334.00" y="513.33" width="1.33" height="1.33" fill="#243831"/><rect x="335.33" y="513.33" width="1.33" height="1.33" fill="#243831"/><rect x="339.33" y="513.33" width="1.33" height="1.33" fill="#243831"/><rect x="340.67" y="513.33" width="1.33" height="1.33" fill="#243831"/><rect x="342.00" y="513.33" width="1.33" height="1.33" fill="#243831"/><rect x="343.33" y="513.33" width="1.33" height="1.33" fill="#243831"/><rect x="346.00" y="513.33" width="1.33" height="1.33" fill="#243831"/><rect x="351.33" y="513.33" width="1.33" height="1.33" fill="#243831"/><rect x="354.00" y="513.33" width="1.33" height="1.33" fill="#243831"/><rect x="359.33" y="513.33" width="1.33" height="1.33" fill="#243831"/><rect x="362.00" y="513.33" width="1.33" height="1.33" fill="#243831"/><rect x="363.33" y="513.33" width="1.33" height="1.33" fill="#243831"/><rect x="322.00" y="514.67" width="1.33" height="1.33" fill="#243831"/><rect x="323.33" y="514.67" width="1.33" height="1.33" fill="#243831"/><rect x="324.67" y="514.67" width="1.33" height="1.33" fill="#243831"/><rect x="326.00" y="514.67" width="1.33" height="1.33" fill="#243831"/><rect x="327.33" y="514.67" width="1.33" height="1.33" fill="#243831"/><rect x="328.67" y="514.67" width="1.33" height="1.33" fill="#243831"/><rect x="330.00" y="514.67" width="1.33" height="1.33" fill="#243831"/><rect x="332.67" y="514.67" width="1.33" height="1.33" fill="#243831"/><rect x="334.00" y="514.67" width="1.33" height="1.33" fill="#243831"/><rect x="339.33" y="514.67" width="1.33" height="1.33" fill="#243831"/><rect x="342.00" y="514.67" width="1.33" height="1.33" fill="#243831"/><rect x="346.00" y="514.67" width="1.33" height="1.33" fill="#243831"/><rect x="347.33" y="514.67" width="1.33" height="1.33" fill="#243831"/><rect x="350.00" y="514.67" width="1.33" height="1.33" fill="#243831"/><rect x="352.67" y="514.67" width="1.33" height="1.33" fill="#243831"/><rect x="354.00" y="514.67" width="1.33" height="1.33" fill="#243831"/><rect x="356.67" y="514.67" width="1.33" height="1.33" fill="#243831"/><rect x="359.33" y="514.67" width="1.33" height="1.33" fill="#243831"/><rect x="362.00" y="514.67" width="1.33" height="1.33" fill="#243831"/><rect x="322.00" y="516.00" width="1.33" height="1.33" fill="#243831"/><rect x="330.00" y="516.00" width="1.33" height="1.33" fill="#243831"/><rect x="332.67" y="516.00" width="1.33" height="1.33" fill="#243831"/><rect x="335.33" y="516.00" width="1.33" height="1.33" fill="#243831"/><rect x="336.67" y="516.00" width="1.33" height="1.33" fill="#243831"/><rect x="338.00" y="516.00" width="1.33" height="1.33" fill="#243831"/><rect x="339.33" y="516.00" width="1.33" height="1.33" fill="#243831"/><rect x="340.67" y="516.00" width="1.33" height="1.33" fill="#243831"/><rect x="347.33" y="516.00" width="1.33" height="1.33" fill="#243831"/><rect x="351.33" y="516.00" width="1.33" height="1.33" fill="#243831"/><rect x="352.67" y="516.00" width="1.33" height="1.33" fill="#243831"/><rect x="354.00" y="516.00" width="1.33" height="1.33" fill="#243831"/><rect x="359.33" y="516.00" width="1.33" height="1.33" fill="#243831"/><rect x="360.67" y="516.00" width="1.33" height="1.33" fill="#243831"/><rect x="362.00" y="516.00" width="1.33" height="1.33" fill="#243831"/><rect x="363.33" y="516.00" width="1.33" height="1.33" fill="#243831"/><rect x="364.67" y="516.00" width="1.33" height="1.33" fill="#243831"/><rect x="322.00" y="517.33" width="1.33" height="1.33" fill="#243831"/><rect x="324.67" y="517.33" width="1.33" height="1.33" fill="#243831"/><rect x="326.00" y="517.33" width="1.33" height="1.33" fill="#243831"/><rect x="327.33" y="517.33" width="1.33" height="1.33" fill="#243831"/><rect x="330.00" y="517.33" width="1.33" height="1.33" fill="#243831"/><rect x="332.67" y="517.33" width="1.33" height="1.33" fill="#243831"/><rect x="335.33" y="517.33" width="1.33" height="1.33" fill="#243831"/><rect x="336.67" y="517.33" width="1.33" height="1.33" fill="#243831"/><rect x="339.33" y="517.33" width="1.33" height="1.33" fill="#243831"/><rect x="340.67" y="517.33" width="1.33" height="1.33" fill="#243831"/><rect x="342.00" y="517.33" width="1.33" height="1.33" fill="#243831"/><rect x="344.67" y="517.33" width="1.33" height="1.33" fill="#243831"/><rect x="346.00" y="517.33" width="1.33" height="1.33" fill="#243831"/><rect x="348.67" y="517.33" width="1.33" height="1.33" fill="#243831"/><rect x="351.33" y="517.33" width="1.33" height="1.33" fill="#243831"/><rect x="352.67" y="517.33" width="1.33" height="1.33" fill="#243831"/><rect x="354.00" y="517.33" width="1.33" height="1.33" fill="#243831"/><rect x="355.33" y="517.33" width="1.33" height="1.33" fill="#243831"/><rect x="356.67" y="517.33" width="1.33" height="1.33" fill="#243831"/><rect x="358.00" y="517.33" width="1.33" height="1.33" fill="#243831"/><rect x="359.33" y="517.33" width="1.33" height="1.33" fill="#243831"/><rect x="322.00" y="518.67" width="1.33" height="1.33" fill="#243831"/><rect x="324.67" y="518.67" width="1.33" height="1.33" fill="#243831"/><rect x="326.00" y="518.67" width="1.33" height="1.33" fill="#243831"/><rect x="327.33" y="518.67" width="1.33" height="1.33" fill="#243831"/><rect x="330.00" y="518.67" width="1.33" height="1.33" fill="#243831"/><rect x="332.67" y="518.67" width="1.33" height="1.33" fill="#243831"/><rect x="334.00" y="518.67" width="1.33" height="1.33" fill="#243831"/><rect x="335.33" y="518.67" width="1.33" height="1.33" fill="#243831"/><rect x="336.67" y="518.67" width="1.33" height="1.33" fill="#243831"/><rect x="340.67" y="518.67" width="1.33" height="1.33" fill="#243831"/><rect x="344.67" y="518.67" width="1.33" height="1.33" fill="#243831"/><rect x="347.33" y="518.67" width="1.33" height="1.33" fill="#243831"/><rect x="348.67" y="518.67" width="1.33" height="1.33" fill="#243831"/><rect x="354.00" y="518.67" width="1.33" height="1.33" fill="#243831"/><rect x="355.33" y="518.67" width="1.33" height="1.33" fill="#243831"/><rect x="358.00" y="518.67" width="1.33" height="1.33" fill="#243831"/><rect x="363.33" y="518.67" width="1.33" height="1.33" fill="#243831"/><rect x="364.67" y="518.67" width="1.33" height="1.33" fill="#243831"/><rect x="322.00" y="520.00" width="1.33" height="1.33" fill="#243831"/><rect x="324.67" y="520.00" width="1.33" height="1.33" fill="#243831"/><rect x="326.00" y="520.00" width="1.33" height="1.33" fill="#243831"/><rect x="327.33" y="520.00" width="1.33" height="1.33" fill="#243831"/><rect x="330.00" y="520.00" width="1.33" height="1.33" fill="#243831"/><rect x="334.00" y="520.00" width="1.33" height="1.33" fill="#243831"/><rect x="339.33" y="520.00" width="1.33" height="1.33" fill="#243831"/><rect x="343.33" y="520.00" width="1.33" height="1.33" fill="#243831"/><rect x="344.67" y="520.00" width="1.33" height="1.33" fill="#243831"/><rect x="347.33" y="520.00" width="1.33" height="1.33" fill="#243831"/><rect x="350.00" y="520.00" width="1.33" height="1.33" fill="#243831"/><rect x="351.33" y="520.00" width="1.33" height="1.33" fill="#243831"/><rect x="352.67" y="520.00" width="1.33" height="1.33" fill="#243831"/><rect x="354.00" y="520.00" width="1.33" height="1.33" fill="#243831"/><rect x="355.33" y="520.00" width="1.33" height="1.33" fill="#243831"/><rect x="358.00" y="520.00" width="1.33" height="1.33" fill="#243831"/><rect x="359.33" y="520.00" width="1.33" height="1.33" fill="#243831"/><rect x="363.33" y="520.00" width="1.33" height="1.33" fill="#243831"/><rect x="364.67" y="520.00" width="1.33" height="1.33" fill="#243831"/><rect x="322.00" y="521.33" width="1.33" height="1.33" fill="#243831"/><rect x="330.00" y="521.33" width="1.33" height="1.33" fill="#243831"/><rect x="334.00" y="521.33" width="1.33" height="1.33" fill="#243831"/><rect x="335.33" y="521.33" width="1.33" height="1.33" fill="#243831"/><rect x="340.67" y="521.33" width="1.33" height="1.33" fill="#243831"/><rect x="342.00" y="521.33" width="1.33" height="1.33" fill="#243831"/><rect x="343.33" y="521.33" width="1.33" height="1.33" fill="#243831"/><rect x="346.00" y="521.33" width="1.33" height="1.33" fill="#243831"/><rect x="347.33" y="521.33" width="1.33" height="1.33" fill="#243831"/><rect x="355.33" y="521.33" width="1.33" height="1.33" fill="#243831"/><rect x="358.00" y="521.33" width="1.33" height="1.33" fill="#243831"/><rect x="359.33" y="521.33" width="1.33" height="1.33" fill="#243831"/><rect x="360.67" y="521.33" width="1.33" height="1.33" fill="#243831"/><rect x="362.00" y="521.33" width="1.33" height="1.33" fill="#243831"/><rect x="363.33" y="521.33" width="1.33" height="1.33" fill="#243831"/><rect x="364.67" y="521.33" width="1.33" height="1.33" fill="#243831"/><rect x="322.00" y="522.67" width="1.33" height="1.33" fill="#243831"/><rect x="323.33" y="522.67" width="1.33" height="1.33" fill="#243831"/><rect x="324.67" y="522.67" width="1.33" height="1.33" fill="#243831"/><rect x="326.00" y="522.67" width="1.33" height="1.33" fill="#243831"/><rect x="327.33" y="522.67" width="1.33" height="1.33" fill="#243831"/><rect x="328.67" y="522.67" width="1.33" height="1.33" fill="#243831"/><rect x="330.00" y="522.67" width="1.33" height="1.33" fill="#243831"/><rect x="332.67" y="522.67" width="1.33" height="1.33" fill="#243831"/><rect x="335.33" y="522.67" width="1.33" height="1.33" fill="#243831"/><rect x="338.00" y="522.67" width="1.33" height="1.33" fill="#243831"/><rect x="339.33" y="522.67" width="1.33" height="1.33" fill="#243831"/><rect x="340.67" y="522.67" width="1.33" height="1.33" fill="#243831"/><rect x="343.33" y="522.67" width="1.33" height="1.33" fill="#243831"/><rect x="344.67" y="522.67" width="1.33" height="1.33" fill="#243831"/><rect x="347.33" y="522.67" width="1.33" height="1.33" fill="#243831"/><rect x="352.67" y="522.67" width="1.33" height="1.33" fill="#243831"/><rect x="354.00" y="522.67" width="1.33" height="1.33" fill="#243831"/><rect x="355.33" y="522.67" width="1.33" height="1.33" fill="#243831"/><rect x="358.00" y="522.67" width="1.33" height="1.33" fill="#243831"/><rect x="359.33" y="522.67" width="1.33" height="1.33" fill="#243831"/>
<rect x="0" y="539.0" width="420.0" height="56.0" fill="#243831"/>
<g transform="translate(30.0,551.0) scale(0.3)"><path d="M22 82 V46 a26 26 0 0 1 52 0 V82" fill="none" stroke="#F5EFE4" stroke-width="5.5" stroke-linecap="round"/><circle cx="48" cy="58" r="7.5" fill="#BB6E47"/></g>
<text x="62.0" y="562.0" font-family="Source Sans 3 SemiBold" font-size="9.5" fill="#FBF8F2" text-anchor="start">pfaffeneder-psychologische-beratung.de</text>
<text x="62.0" y="575.0" font-family="Source Sans 3" font-size="8.5" fill="#C9D6CE" text-anchor="start">Online · deutschlandweit  ·  Deutsch &amp; English  ·  0155 6713 8410</text>
</svg>