<svg xmlns="http://www.w3.org/2000/svg" width="420.0pt" height="595.0pt" viewBox="0 0 420.0 595.0">
<rect width="420.0" height="595.0" fill="#FBF8F2"/>
<g transform="translate(28.0,36) scale(0.36)"><path d="M22 82 V46 a26 26 0 0 1 52 0 V82" fill="none" stroke="#3C5A4C" stroke-width="5.5" stroke-linecap="round"/><circle cx="48" cy="58" r="7.5" fill="#BB6E47"/></g>
<text x="64.0" y="52.0" font-family="Spectral Medium" font-size="14" fill="#232E2A" text-anchor="start">Lea Zoe Pfaffeneder</text>
<text x="65.0" y="64.0" font-family="IBM Plex Mono" font-size="8.5" fill="#A25836" text-anchor="start" letter-spacing="2.2">PSYCHOLOGISCHE BERATUNG</text>
<text x="34.0" y="120.0" font-family="IBM Plex Mono" font-size="8.5" fill="#A25836" text-anchor="start" letter-spacing="2.2">ABLAUF &amp; KOSTEN</text>
<text x="34.0" y="146.0" font-family="Spectral SemiBold" font-size="26" fill="#232E2A" text-anchor="start">In ruhigen Schritten —</text>
<text x="34.0" y="178.0" font-family="Spectral SemiBold" font-size="26" fill="#232E2A" text-anchor="start">in Ihrem Tempo.</text>
<line x1="40.0" y1="219" x2="40.0" y2="255" stroke="#DED1BC" stroke-width="1.5"/>
<circle cx="40.0" cy="207" r="13" fill="#EDF3EF" stroke="#DCE8E0"/>
<text x="40.0" y="210.5" font-family="IBM Plex Mono" font-size="9" fill="#3C5A4C" text-anchor="middle">01</text>
<text x="66.0" y="212.0" font-family="Source Sans 3 SemiBold" font-size="12.5" fill="#232E2A" text-anchor="start">Kennenlernen</text>
<text x="66.0" y="227.0" font-family="Source Sans 3" font-size="10.5" fill="#5C6A64" text-anchor="start">Ein kurzes, unverbindliches Erstgespräch.</text>
<line x1="40.0" y1="279" x2="40.0" y2="315" stroke="#DED1BC" stroke-width="1.5"/>
<circle cx="40.0" cy="267" r="13" fill="#EDF3EF" stroke="#DCE8E0"/>
<text x="40.0" y="270.5" font-family="IBM Plex Mono" font-size="9" fill="#3C5A4C" text-anchor="middle">02</text>
<text x="66.0" y="272.0" font-family="Source Sans 3 SemiBold" font-size="12.5" fill="#232E2A" text-anchor="start">Anliegen klären</text>
<text x="66.0" y="287.0" font-family="Source Sans 3" font-size="10.5" fill="#5C6A64" text-anchor="start">Wir klären gemeinsam Ihr Anliegen und Ihre Ziele.</text>
<line x1="40.0" y1="339" x2="40.0" y2="375" stroke="#DED1BC" stroke-width="1.5"/>
<circle cx="40.0" cy="327" r="13" fill="#EDF3EF" stroke="#DCE8E0"/>
<text x="40.0" y="330.5" font-family="IBM Plex Mono" font-size="9" fill="#3C5A4C" text-anchor="middle">03</text>
<text x="66.0" y="332.0" font-family="Source Sans 3 SemiBold" font-size="12.5" fill="#232E2A" text-anchor="start">Beratungssitzungen</text>
<text x="66.0" y="347.0" font-family="Source Sans 3" font-size="10.5" fill="#5C6A64" text-anchor="start">Regelmäßige Gespräche (i. d. R. 50 Min.), in Ihrem Tempo.</text>
<circle cx="40.0" cy="387" r="13" fill="#EDF3EF" stroke="#DCE8E0"/>
<text x="40.0" y="390.5" font-family="IBM Plex Mono" font-size="9" fill="#3C5A4C" text-anchor="middle">04</text>
<text x="66.0" y="392.0" font-family="Source Sans 3 SemiBold" font-size="12.5" fill="#232E2A" text-anchor="start">Abschluss &amp; Reflexion</text>
<text x="66.0" y="407.0" font-family="Source Sans 3" font-size="10.5" fill="#5C6A64" text-anchor="start">Wir sichern, was Sie mitnehmen.</text>
<rect x="34.0" y="452" width="352.0" height="78" rx="14" fill="#243831"/>
<text x="56.0" y="476.0" font-family="IBM Plex Mono" font-size="8.5" fill="#C9D6CE" text-anchor="start" letter-spacing="2.2">KOSTEN</text>
<text x="56.0" y="508.0" font-family="Spectral SemiBold" font-size="30" fill="#FBF8F2" text-anchor="start">45 €</text>
<text x="126.0" y="508.0" font-family="Source Sans 3" font-size="12" fill="#C9D6CE" text-anchor="start">/ 50 Minuten</text>
<text x="364.0" y="482.0" font-family="Source Sans 3 SemiBold" font-size="11" fill="#F1DBCC" text-anchor="end">Erstgespräch</text>
<text x="364.0" y="498.0" font-family="Source Sans 3 SemiBold" font-size="11" fill="#F1DBCC" text-anchor="end">unverbindlich</text>
<text x="364.0" y="516.0" font-family="Source Sans 3" font-size="9" fill="#9DBBA8" text-anchor="end">Selbstzahlerleistung</text>
<rect x="0" y="539.0" width="420.0" height="56.0" fill="#243831"/>
<g transform="translate(30.0,551.0) scale(0.3)"><path d="M22 82 V46 a26 26 0 0 1 52 0 V82" fill="none" stroke="#F5EFE4" stroke-width="5.5" stroke-linecap="round"/><circle cx="48" cy="58" r="7.5" fill="#BB6E47"/></g>
<text x="62.0" y="562.0" font-family="Source Sans 3 SemiBold" font-size="9.5" fill="#FBF8F2" text-anchor="start">pfaffeneder-psychologische-beratung.de</text>
<text x="62.0" y="575.0" font-family="Source Sans 3" font-size="8.5" fill="#C9D6CE" text-anchor="start">Online · deutschlandweit  ·  0155 6713 8410</text>
</svg>